<?xml version="1.0" encoding="utf-8"?>
<!-- Generator: Adobe Illustrator 19.0.0, SVG Export Plug-In . SVG Version: 6.00 Build 0)  -->
<svg version="1.1" id="Layer_1" xmlns="http://www.w3.org/2000/svg" xmlns:xlink="http://www.w3.org/1999/xlink" x="0px" y="0px"
	 width="32px" height="32px" viewBox="0 0 32 32" style="enable-background:new 0 0 32 32;" xml:space="preserve">
<style type="text/css">
	.st0{fill:#3299D5;}
	.st1{fill:#2B95D2;}
</style>
<g id="XMLID_7_">
	<path id="XMLID_5_" class="st0" d="M16.3,6.3c0,0-0.1,0-0.1,0c0-0.1,0-0.1,0-0.2V2.9c0,0-0.9-3.2-4.5-2.8C8.2-0.3,7.3,2.9,7.3,2.9
		v3.3c0,0.1,0,0.1,0,0.2c0,0-0.1,0-0.1,0c-0.6,0-1.1,0.7-1.1,1.5s0.5,1.5,1.1,1.5c0,0,0.1,0,0.1,0c0,0,0,0.1,0,0.1s0.2,1.1,1.3,3.1
		s3.2,2.1,3.2,2.1s2-0.2,3.2-2.1s1.3-3.1,1.3-3.1s0,0,0-0.1c0,0,0.1,0,0.1,0c0.6,0,1.1-0.7,1.1-1.5S16.9,6.3,16.3,6.3z"/>
	<g id="XMLID_9_">
		<path id="XMLID_11_" class="st1" d="M24.6,17.1c-4.1,0-7.4,3.3-7.4,7.4s3.3,7.4,7.4,7.4s7.4-3.3,7.4-7.4S28.7,17.1,24.6,17.1z
			 M24.6,29.6c-2.8,0-5.1-2.3-5.1-5.1s2.3-5.1,5.1-5.1s5.1,2.3,5.1,5.1S27.4,29.6,24.6,29.6z"/>
		<path id="XMLID_2_" class="st1" d="M27.8,24.3c-0.2-0.5-2.7-3.4-2.7-3.4s-0.4-0.3-0.6-0.3c-0.2,0-0.6,0.3-0.6,0.3
			s-2.5,2.9-2.7,3.4c-0.2,0.5,0.4,0.8,0.4,0.8h1.1c0,0,0,2.2,0.1,2.8c0.1,0.6,0.7,0.7,0.7,0.7h1h1c0,0,0.6-0.1,0.7-0.7
			c0.1-0.6,0.1-2.8,0.1-2.8h1.1C27.4,25.1,28,24.8,27.8,24.3z"/>
	</g>
	<path id="XMLID_1_" class="st0" d="M20.2,17.4c-1.8-0.9-3.9-1.7-3.9-1.7c-0.3-0.1-0.6-0.2-1.1-0.3c0.1,0.6,0.2,1.3,0.2,2
		c0,2.6-0.9,4.8-2.3,5.8c0-0.3-0.2-4.3-0.4-5c0.2-0.3,0.9-1.4,0.7-2c-0.3-0.5-0.7-0.7-0.7-0.7h-1.1h-1.1c0,0-0.4,0.3-0.7,0.7
		c-0.2,0.6,0.5,1.7,0.7,2c-0.2,0.7-0.4,5-0.4,5c0,0.1,0.1,0.2,0.1,0.2c-1.5-0.8-2.6-3.3-2.6-6.1c0-0.7,0.1-1.3,0.2-1.9
		c-0.2,0.1-0.5,0.1-0.6,0.2c0,0-5.8,2.1-6.4,3.4C0.2,20.5,0,24,0,24.9c0,0.9,1.5,1.4,1.5,1.4h10.2h4.8c0-0.4-0.1-0.7-0.1-1.1
		C16.4,22,17.9,19.3,20.2,17.4z"/>
</g>
</svg>
