<?xml version="1.0" standalone="no"?>
<!DOCTYPE svg PUBLIC "-//W3C//DTD SVG 20010904//EN"
 "http://www.w3.org/TR/2001/REC-SVG-20010904/DTD/svg10.dtd">
<svg version="1.0" xmlns="http://www.w3.org/2000/svg"
 width="513.000000pt" height="513.000000pt" viewBox="0 0 513.000000 513.000000"
 preserveAspectRatio="xMidYMid meet">
<metadata>
Created by potrace 1.11, written by Peter Selinger 2001-2013
</metadata>
<g transform="translate(0.000000,513.000000) scale(0.100000,-0.100000)"
fill="#000000" stroke="none">
<path d="M314 5069 c-2 -4 -16 -10 -30 -13 -15 -4 -33 -14 -41 -22 -9 -8 -21
-13 -27 -11 -6 3 -17 -2 -24 -9 -7 -8 -10 -14 -6 -14 4 0 -8 -11 -27 -23 -19
-13 -33 -29 -32 -35 2 -7 -4 -12 -13 -12 -8 0 -13 -4 -9 -9 3 -6 -3 -14 -12
-20 -10 -6 -14 -11 -10 -11 5 0 -2 -14 -14 -32 -13 -17 -17 -28 -10 -24 9 6 9
2 -2 -15 -10 -16 -14 -46 -13 -89 1 -36 -2 -73 -6 -82 -6 -12 -5 -18 4 -18 9
0 9 -3 0 -12 -6 -6 -8 -17 -3 -27 7 -14 7 -54 1 -71 -1 -3 -1 -9 0 -15 7 -26
5 -85 -3 -85 -4 0 -5 -5 -2 -11 10 -15 12 -109 3 -109 -4 0 -4 -10 0 -22 10
-28 9 -99 -1 -116 -5 -7 -3 -12 4 -12 10 0 10 -3 1 -12 -6 -6 -8 -17 -3 -27 7
-14 7 -54 1 -71 -1 -3 -1 -9 0 -15 7 -26 5 -85 -3 -85 -4 0 -5 -5 -2 -11 10
-15 12 -109 3 -109 -4 0 -4 -10 0 -22 10 -28 9 -99 -1 -116 -5 -7 -3 -12 4
-12 10 0 10 -3 1 -12 -6 -6 -8 -17 -3 -27 7 -14 7 -54 1 -71 -1 -3 -1 -9 0
-15 7 -26 5 -85 -3 -85 -4 0 -5 -5 -2 -11 10 -15 12 -109 3 -109 -4 0 -4 -10
0 -22 10 -28 9 -99 -1 -116 -5 -7 -3 -12 4 -12 10 0 10 -3 1 -12 -6 -6 -8 -17
-3 -27 7 -14 7 -54 1 -71 -1 -3 -1 -9 0 -15 7 -26 5 -85 -3 -85 -4 0 -5 -5 -2
-11 10 -15 12 -109 3 -109 -4 0 -4 -10 0 -22 10 -28 9 -99 -1 -116 -5 -7 -3
-12 4 -12 10 0 10 -3 1 -12 -6 -6 -8 -17 -3 -27 7 -14 7 -54 1 -71 -1 -3 -1
-9 0 -15 7 -26 5 -85 -3 -85 -4 0 -5 -5 -2 -11 10 -15 12 -109 3 -109 -4 0 -4
-10 0 -22 10 -28 9 -99 -1 -116 -5 -7 -3 -12 4 -12 10 0 10 -3 1 -12 -6 -6 -8
-17 -3 -27 7 -14 7 -54 1 -71 -1 -3 -1 -9 0 -15 7 -26 5 -85 -3 -85 -4 0 -5
-5 -2 -11 10 -15 12 -109 3 -109 -4 0 -4 -10 0 -22 10 -28 9 -99 -1 -116 -5
-7 -3 -12 4 -12 10 0 10 -3 1 -12 -6 -6 -8 -17 -3 -27 7 -14 7 -54 1 -71 -1
-3 -1 -9 0 -15 7 -26 5 -85 -3 -85 -4 0 -5 -5 -2 -11 10 -15 12 -109 3 -109
-4 0 -4 -10 0 -22 10 -28 9 -99 -1 -116 -5 -7 -3 -12 4 -12 10 0 10 -3 1 -12
-6 -6 -8 -17 -3 -27 7 -14 7 -54 1 -71 -1 -3 -1 -9 0 -15 7 -26 5 -85 -3 -85
-4 0 -5 -5 -2 -11 10 -15 12 -109 3 -109 -4 0 -4 -10 0 -22 10 -28 9 -99 -1
-116 -5 -7 -3 -12 4 -12 10 0 10 -3 1 -12 -6 -6 -8 -17 -3 -27 7 -14 7 -54 1
-71 -1 -3 -1 -9 0 -15 7 -26 5 -85 -3 -85 -4 0 -5 -5 -2 -11 10 -16 12 -109 2
-109 -4 0 -5 -5 -2 -10 3 -6 8 -32 11 -58 2 -26 9 -49 14 -50 6 -2 8 -8 4 -13
-3 -5 0 -9 5 -9 6 0 10 -3 9 -7 -5 -26 40 -86 112 -147 17 -15 77 -43 100 -48
8 -2 17 -6 20 -9 3 -4 19 -8 35 -10 17 -2 35 -7 40 -11 6 -4 17 -3 25 2 8 5
21 5 32 -1 10 -5 18 -6 18 -1 0 10 30 9 46 0 5 -4 16 -3 24 2 7 4 24 4 37 -1
16 -6 23 -5 23 4 0 7 3 8 8 2 9 -12 72 -14 72 -1 0 4 6 4 13 -3 10 -8 17 -7
26 2 11 9 14 9 18 0 3 -9 10 -10 23 -3 12 6 21 7 25 0 3 -6 15 -6 30 0 13 5
27 5 30 1 3 -5 20 -5 39 -1 18 4 41 3 50 -2 9 -5 16 -5 16 0 0 10 30 10 46 0
5 -4 16 -3 24 2 7 4 24 4 37 -1 16 -6 23 -5 23 4 0 7 3 8 8 2 9 -12 72 -14 72
-1 0 4 6 4 13 -3 10 -8 17 -7 26 2 11 9 14 9 18 0 3 -9 10 -10 23 -3 12 6 21
7 25 0 3 -6 15 -6 30 0 13 5 27 5 30 1 3 -5 20 -5 39 -1 18 4 41 3 50 -2 9 -5
16 -5 16 0 0 10 30 10 46 0 5 -4 16 -3 24 2 7 4 24 4 37 -1 16 -6 23 -5 23 4
0 7 3 8 8 2 9 -12 72 -14 72 -1 0 4 6 4 13 -3 10 -8 17 -7 26 2 11 9 14 9 18
0 3 -9 10 -10 23 -3 12 6 21 7 25 0 3 -6 15 -6 30 0 13 5 27 5 30 1 3 -5 20
-5 39 -1 18 4 41 3 50 -2 9 -5 16 -5 16 0 0 10 30 10 46 0 5 -4 16 -3 24 2 7
4 24 4 37 -1 16 -6 23 -5 23 4 0 7 3 8 8 2 9 -13 72 -13 72 -1 0 6 5 5 12 -2
9 -9 15 -9 26 1 12 9 16 9 19 0 3 -9 10 -10 23 -3 12 6 21 7 25 0 3 -6 15 -6
30 0 13 5 27 5 30 1 3 -5 20 -5 39 -1 18 4 41 3 50 -2 9 -5 16 -5 16 0 0 10
30 10 46 0 5 -4 16 -3 24 2 7 4 24 4 37 -1 16 -6 23 -5 23 4 0 7 3 8 8 2 9
-12 72 -14 72 -1 0 4 6 4 13 -3 10 -8 17 -7 26 2 11 9 14 9 18 0 3 -9 10 -10
23 -3 12 6 21 7 25 0 3 -6 15 -6 30 0 13 5 27 5 30 1 3 -5 20 -5 39 -1 18 4
41 3 50 -2 9 -5 16 -5 16 0 0 10 30 10 46 0 5 -4 16 -3 24 2 7 4 24 4 37 -1
16 -6 23 -5 23 4 0 7 3 8 8 2 9 -12 72 -14 72 -1 0 4 6 4 13 -3 10 -8 17 -7
26 2 11 9 14 9 18 0 3 -9 10 -10 23 -3 12 6 21 7 25 0 3 -6 15 -6 30 0 13 5
27 5 30 1 3 -5 20 -5 39 -1 18 4 41 3 50 -2 9 -5 16 -5 16 0 0 10 30 10 46 0
5 -4 16 -3 24 2 7 4 24 4 37 -1 16 -6 23 -5 23 4 0 7 3 8 8 2 9 -12 72 -14 72
-1 0 4 6 4 13 -3 10 -8 17 -7 26 2 11 9 14 9 18 0 3 -9 10 -10 23 -3 12 6 21
7 25 0 3 -6 15 -6 30 0 13 5 27 5 30 1 3 -5 20 -5 39 -1 18 4 41 3 50 -2 9 -5
16 -5 16 0 0 10 30 10 46 0 5 -4 16 -3 24 2 7 4 24 4 37 -1 16 -6 23 -5 23 4
0 7 3 8 8 2 9 -12 72 -14 72 -1 0 4 6 4 13 -3 10 -8 17 -7 26 2 11 9 14 9 18
0 3 -9 10 -10 23 -3 12 6 21 7 25 0 3 -6 15 -6 30 0 13 5 27 5 30 1 3 -5 20
-5 39 -1 18 4 41 3 50 -2 9 -5 16 -5 16 0 0 10 30 10 46 0 5 -4 16 -3 24 2 7
4 24 4 37 -1 16 -6 23 -5 23 4 0 7 3 8 8 2 9 -12 72 -14 72 -1 0 4 6 4 13 -3
10 -8 17 -7 26 2 11 9 14 9 18 0 3 -9 10 -10 23 -3 10 6 21 7 24 2 5 -9 47 -9
63 1 6 4 23 8 37 9 14 1 26 7 26 12 0 5 3 7 6 3 8 -8 64 13 64 25 0 5 4 7 8 4
5 -3 21 6 37 20 15 13 31 24 35 24 10 0 75 91 72 101 -1 5 2 9 7 9 8 0 12 11
26 63 2 4 3 8 4 10 2 1 4 13 7 26 2 14 9 30 14 36 5 7 7 15 4 18 -9 9 -11 98
-2 103 4 3 4 13 -2 23 -6 12 -5 22 2 29 9 9 8 12 -2 12 -13 0 -13 2 0 10 8 5
10 10 5 10 -12 0 -13 59 -2 77 4 6 2 15 -4 19 -8 4 -7 9 2 15 8 5 10 9 4 9
-11 0 -13 99 -3 116 4 5 3 16 -2 24 -5 9 -5 19 2 27 8 10 7 13 -3 13 -11 0
-11 2 1 10 8 5 10 10 5 10 -12 0 -13 59 -2 77 4 6 2 15 -4 19 -8 4 -7 9 2 15
8 5 10 9 4 9 -11 0 -13 99 -3 116 4 5 3 16 -2 24 -5 9 -5 19 2 27 8 10 7 13
-3 13 -11 0 -11 2 1 10 8 5 10 10 5 10 -12 0 -13 59 -2 77 4 6 2 15 -4 19 -8
4 -7 9 2 15 8 5 10 9 4 9 -11 0 -13 99 -3 116 4 5 3 16 -2 24 -5 9 -5 19 2 27
8 10 7 13 -3 13 -11 0 -11 2 1 10 8 5 10 10 5 10 -12 0 -13 59 -2 77 4 6 2 15
-4 19 -8 4 -7 9 2 15 8 5 10 9 4 9 -11 0 -13 99 -3 116 4 5 3 16 -2 24 -5 9
-5 19 2 27 8 10 7 13 -3 13 -11 0 -11 2 1 10 8 5 10 10 5 10 -12 0 -13 59 -2
77 4 6 2 15 -4 19 -8 4 -7 9 2 15 8 5 10 9 4 9 -11 0 -13 99 -3 116 4 5 3 16
-2 24 -5 9 -5 19 2 27 8 10 7 13 -3 13 -11 0 -11 2 1 10 8 5 10 10 5 10 -12 0
-13 59 -2 77 4 6 2 15 -4 19 -8 4 -7 9 2 15 8 5 10 9 4 9 -11 0 -13 99 -3 116
4 5 3 16 -2 24 -5 9 -5 19 2 27 8 10 7 13 -3 13 -11 0 -11 2 1 10 8 5 10 10 5
10 -12 0 -13 59 -2 77 4 6 2 15 -4 19 -8 4 -7 9 2 15 8 5 10 9 4 9 -11 0 -13
99 -3 116 4 5 3 16 -2 24 -5 9 -5 19 2 27 8 10 7 13 -3 13 -11 0 -11 2 1 10 8
5 10 10 5 10 -12 0 -13 59 -2 77 4 6 2 15 -4 19 -8 4 -7 9 2 15 8 5 10 9 4 9
-11 0 -13 99 -3 116 4 5 3 16 -2 24 -5 9 -5 19 2 27 8 10 7 13 -3 13 -11 0
-11 2 1 10 8 5 10 10 5 10 -12 0 -13 59 -2 77 4 6 2 15 -4 19 -8 4 -7 9 2 15
8 5 10 9 4 9 -11 0 -13 99 -3 116 4 5 3 16 -2 24 -5 9 -5 19 2 27 8 10 7 13
-3 13 -11 0 -11 2 1 10 8 5 10 10 5 10 -12 0 -13 59 -2 77 4 6 2 15 -4 19 -8
4 -7 9 2 15 8 5 10 9 4 9 -11 0 -13 99 -3 116 4 5 3 16 -2 24 -5 9 -5 19 2 27
8 10 7 13 -3 13 -11 0 -11 2 1 10 8 5 10 10 5 10 -12 0 -13 59 -2 77 4 6 2 15
-4 19 -8 4 -7 9 2 15 8 5 10 9 4 9 -11 0 -13 99 -3 116 4 5 3 16 -2 24 -5 9
-5 19 2 27 8 10 7 13 -3 13 -11 0 -11 2 1 10 8 5 10 10 5 10 -12 0 -13 59 -2
77 4 6 2 15 -4 19 -8 4 -7 9 2 15 8 5 10 9 4 9 -11 0 -13 99 -3 116 4 5 3 16
-2 24 -5 9 -5 19 2 27 8 10 7 13 -3 13 -11 0 -11 2 1 10 8 5 10 10 5 10 -12 0
-13 59 -2 77 4 6 2 15 -4 19 -8 4 -7 9 2 15 8 5 10 9 4 9 -11 0 -13 105 -2
116 4 4 2 13 -4 20 -6 7 -12 23 -14 36 -11 71 -39 122 -100 183 -31 30 -52 55
-48 55 5 0 -16 12 -46 25 -64 30 -129 46 -136 35 -3 -5 -18 -5 -34 0 -19 5
-33 4 -40 -3 -7 -7 -11 -7 -11 -1 0 11 -66 11 -77 0 -3 -3 -12 -1 -20 5 -10 9
-13 8 -13 -2 0 -12 -2 -12 -9 -1 -4 8 -12 14 -16 14 -4 0 -12 -6 -16 -14 -5
-7 -9 -8 -9 -3 0 11 -50 12 -68 1 -7 -4 -12 -3 -12 2 0 10 -62 8 -78 -2 -6 -3
-13 -2 -16 3 -5 8 -57 6 -82 -3 -6 -2 -17 0 -25 4 -8 5 -19 4 -26 -2 -8 -6
-13 -7 -13 -1 0 10 -67 10 -77 -1 -3 -3 -12 -1 -20 5 -10 9 -13 8 -13 -2 0
-12 -2 -12 -9 -1 -4 8 -12 14 -16 14 -4 0 -12 -6 -16 -14 -5 -7 -9 -8 -9 -3 0
11 -50 12 -68 1 -7 -4 -12 -3 -12 2 0 10 -62 8 -78 -2 -6 -3 -13 -2 -16 3 -5
8 -57 6 -82 -3 -6 -2 -17 0 -25 4 -8 5 -19 4 -26 -2 -8 -6 -13 -7 -13 -1 0 10
-67 10 -77 -1 -3 -3 -12 -1 -20 5 -10 9 -13 8 -13 -2 0 -12 -2 -12 -9 -1 -4 8
-12 14 -16 14 -4 0 -12 -6 -16 -14 -5 -7 -9 -8 -9 -3 0 11 -50 12 -68 1 -7 -4
-12 -3 -12 2 0 10 -62 8 -78 -2 -6 -3 -13 -2 -16 3 -5 8 -57 6 -82 -3 -6 -2
-17 0 -25 4 -8 5 -19 4 -26 -2 -8 -6 -13 -7 -13 -1 0 10 -67 10 -77 -1 -3 -3
-12 -1 -20 5 -10 9 -13 8 -13 -2 0 -12 -2 -12 -9 -1 -11 17 -21 17 -32 0 -5
-7 -9 -8 -9 -3 0 11 -50 12 -68 1 -7 -4 -12 -3 -12 2 0 10 -62 8 -78 -2 -6 -3
-13 -2 -16 3 -5 8 -57 6 -82 -3 -6 -2 -17 0 -25 4 -8 5 -19 4 -26 -2 -8 -6
-13 -7 -13 -1 0 10 -67 10 -77 -1 -3 -3 -12 -1 -20 5 -10 9 -13 8 -13 -2 0
-12 -2 -12 -9 -1 -11 17 -21 17 -32 0 -5 -7 -9 -8 -9 -3 0 11 -50 12 -68 1 -7
-4 -12 -3 -12 2 0 10 -62 8 -78 -2 -6 -3 -13 -2 -16 3 -5 8 -57 6 -82 -3 -6
-2 -17 0 -25 4 -8 5 -19 4 -26 -2 -8 -6 -13 -7 -13 -1 0 10 -67 10 -77 -1 -3
-3 -12 -1 -20 5 -10 9 -13 8 -13 -2 0 -12 -2 -12 -9 -1 -4 8 -12 14 -16 14 -4
0 -12 -6 -16 -14 -5 -7 -9 -8 -9 -3 0 11 -50 12 -68 1 -7 -4 -12 -3 -12 2 0
10 -62 8 -78 -2 -6 -3 -13 -2 -16 3 -5 8 -57 6 -82 -3 -6 -2 -17 0 -25 4 -8 5
-19 4 -26 -2 -8 -6 -13 -7 -13 -1 0 10 -67 10 -77 -1 -3 -3 -12 -1 -20 5 -10
9 -13 8 -13 -2 0 -12 -2 -12 -9 -1 -4 8 -12 14 -16 14 -4 0 -12 -6 -16 -14 -5
-7 -9 -8 -9 -3 0 11 -50 12 -68 1 -7 -4 -12 -3 -12 2 0 10 -62 8 -78 -2 -6 -3
-13 -2 -16 3 -5 8 -57 6 -82 -3 -6 -2 -17 0 -25 4 -8 5 -19 4 -26 -2 -8 -6
-13 -7 -13 -1 0 10 -67 10 -77 -1 -3 -3 -12 -1 -20 5 -10 9 -13 8 -13 -2 0
-12 -2 -12 -9 -1 -4 8 -12 14 -16 14 -4 0 -12 -6 -16 -14 -5 -7 -9 -8 -9 -3 0
11 -50 12 -68 1 -7 -4 -12 -3 -12 2 0 10 -62 8 -78 -2 -6 -3 -13 -2 -16 3 -5
8 -57 6 -82 -3 -6 -2 -17 0 -25 4 -8 5 -19 4 -26 -2 -8 -6 -13 -7 -13 -1 0 10
-67 10 -77 -1 -3 -3 -12 -1 -20 5 -10 9 -13 8 -13 -2 0 -12 -2 -12 -9 -1 -4 8
-12 14 -16 14 -4 0 -12 -6 -16 -14 -5 -7 -9 -8 -9 -3 0 11 -50 12 -68 1 -7 -4
-12 -3 -12 2 0 8 -44 9 -75 2 -5 -1 -12 -1 -15 0 -13 5 -102 4 -106 -1z"/>
</g>
</svg>
